<svg width="179" height="26" viewBox="0 0 179 26" fill="none" xmlns="http://www.w3.org/2000/svg">
<path d="M18.9347 0C19.0472 0 19.116 0.123419 19.056 0.218165L17.311 3.0194L7.74755 18.3632C7.72131 18.4056 7.67506 18.4306 7.62631 18.4306H4.85389C4.74139 18.4306 4.67264 18.3071 4.73264 18.2124L15.0798 1.61193C15.7023 0.609615 16.8023 0 17.9848 0H18.9347Z" fill="#0D47A1"/>
<path d="M14.5203 0.0663384L3.08816 18.4109C3.08066 18.4233 3.06691 18.4308 3.05191 18.4308H0.0432459C0.00949689 18.4308 -0.0117525 18.3934 0.00699697 18.3648L10.093 2.18316C10.9379 0.825552 12.4266 0.000265598 14.0291 0.000265598H14.4841C14.5178 0.000265598 14.5391 0.0376653 14.5203 0.0663384Z" fill="#0D47A1"/>
<path d="M29.5545 25.2533C29.5308 25.3069 29.457 25.3132 29.4245 25.2646L27.5008 22.4322L16.7211 6.50363C16.7036 6.4787 16.7036 6.44629 16.7211 6.42011L18.1911 4.21976C18.2211 4.17613 18.2848 4.17488 18.3148 4.21976L29.7433 21.0371C30.3782 21.9734 30.4845 23.1702 30.0232 24.2037L29.5545 25.2533Z" fill="#0D47A1"/>
<path d="M31.3055 21.0387L19.0608 2.79392C19.0433 2.76899 19.0433 2.73533 19.0583 2.70915L20.3908 0.462672C20.4208 0.412805 20.492 0.410312 20.5258 0.458932L31.1967 16.1805C32.1017 17.5144 32.2529 19.2199 31.5942 20.6909L31.4442 21.0263C31.4192 21.0836 31.3405 21.0911 31.3055 21.0387Z" fill="#0D47A1"/>
<path d="M27.7544 26.0005H5.51251C5.45751 26.0005 5.40626 25.9743 5.37376 25.9307L3.90006 23.941C3.81631 23.8276 3.89756 23.6667 4.0388 23.6667H26.2806C26.3356 23.6667 26.3869 23.6929 26.4194 23.7365L27.8931 25.7262C27.9768 25.8397 27.8956 26.0005 27.7544 26.0005Z" fill="#0D47A1"/>
<path d="M25.162 22.4995H2.9202C2.8652 22.4995 2.81395 22.4733 2.78145 22.4297L0.975253 19.9913C0.891506 19.8778 0.972753 19.717 1.114 19.717H23.3558C23.4108 19.717 23.4621 19.7432 23.4946 19.7868L25.3008 22.2253C25.3845 22.3387 25.3033 22.4995 25.162 22.4995Z" fill="#0D47A1"/>
<path d="M46.7236 22H40.9155V10.7207H43.5522V19.7222H46.7236V22ZM47.3882 10.7207H50.0542V17.7886C50.0542 18.8579 50.1201 19.5195 50.252 19.7734C50.3887 20.0273 50.6279 20.1543 50.9697 20.1543C51.3164 20.1543 51.5557 20.0225 51.6875 19.7588C51.8193 19.4951 51.8853 18.8384 51.8853 17.7886V10.7207H54.5V17.9204C54.5 18.7358 54.4634 19.3462 54.3901 19.7515C54.3218 20.1519 54.207 20.501 54.0459 20.7988C53.7773 21.3066 53.3892 21.6802 52.8813 21.9194C52.3735 22.1538 51.7119 22.271 50.8965 22.271C50.1445 22.271 49.5317 22.1611 49.0581 21.9414C48.5845 21.7168 48.2085 21.3604 47.9302 20.8721C47.73 20.5254 47.5884 20.0811 47.5054 19.5391C47.4272 18.9971 47.3882 18.0815 47.3882 16.7925V10.7207ZM60.4746 17.3784V15.3423C60.4746 14.0923 60.394 13.3208 60.2329 13.0278C60.0767 12.73 59.791 12.5811 59.376 12.5811C58.9707 12.5811 58.6899 12.7324 58.5337 13.0352C58.3774 13.3379 58.2993 14.1069 58.2993 15.3423V17.3784C58.2993 18.5991 58.3774 19.3657 58.5337 19.6782C58.6899 19.9858 58.9756 20.1396 59.3906 20.1396C59.8008 20.1396 60.084 19.9883 60.2402 19.6855C60.3965 19.3828 60.4746 18.6138 60.4746 17.3784ZM55.6113 16.3604C55.6113 15.0029 55.6602 14.0117 55.7578 13.3867C55.8555 12.7617 56.0166 12.2734 56.2412 11.9219C56.5635 11.4238 56.9858 11.0552 57.5083 10.8159C58.0308 10.5718 58.6582 10.4497 59.3906 10.4497C60.1279 10.4497 60.7529 10.5718 61.2656 10.8159C61.7832 11.0552 62.2031 11.4238 62.5254 11.9219C62.7598 12.2783 62.9258 12.769 63.0234 13.394C63.1211 14.019 63.1699 15.0078 63.1699 16.3604C63.1699 17.708 63.1211 18.6968 63.0234 19.3267C62.9258 19.9517 62.7598 20.4424 62.5254 20.7988C62.208 21.292 61.7881 21.6606 61.2656 21.9048C60.748 22.1489 60.123 22.271 59.3906 22.271C58.6582 22.271 58.0308 22.1489 57.5083 21.9048C56.9858 21.6606 56.5635 21.292 56.2412 20.7988C56.0166 20.4473 55.8555 19.959 55.7578 19.334C55.6602 18.709 55.6113 17.7178 55.6113 16.3604ZM64.2886 22V10.7207H67.0352L69.2251 17.6787C69.1372 16.5068 69.0713 15.4961 69.0273 14.6465C68.9883 13.7969 68.9688 13.0791 68.9688 12.4932V10.7207H71.3198V22H68.5659L66.3613 14.8296C66.459 15.7622 66.5322 16.668 66.5811 17.5469C66.6348 18.4209 66.6616 19.2705 66.6616 20.0957V22H64.2886ZM79.5942 15.8184V22H77.7778L77.6606 21.2969C77.397 21.5996 77.104 21.8267 76.7817 21.978C76.4644 22.1245 76.103 22.1978 75.6978 22.1978C75.2388 22.1978 74.814 22.1123 74.4233 21.9414C74.0376 21.7705 73.7007 21.5239 73.4126 21.2017C73.0562 20.8062 72.8047 20.2739 72.6582 19.605C72.5117 18.936 72.4385 17.8032 72.4385 16.2065C72.4385 15.0688 72.4897 14.1582 72.5923 13.4746C72.6948 12.791 72.8535 12.2783 73.0684 11.9365C73.3809 11.4434 73.7935 11.0723 74.3062 10.8232C74.8237 10.5742 75.4365 10.4497 76.1445 10.4497C77.2529 10.4497 78.0879 10.7524 78.6494 11.3579C79.2109 11.9585 79.4917 12.8569 79.4917 14.0532C79.4917 14.0972 79.4893 14.1655 79.4844 14.2583C79.4795 14.3462 79.4771 14.417 79.4771 14.4707H76.9722V14.3315C76.9722 13.6821 76.9014 13.2183 76.7598 12.9399C76.623 12.6616 76.3984 12.5225 76.0859 12.5225C75.7148 12.5225 75.4585 12.6934 75.3169 13.0352C75.1802 13.377 75.1118 14.1753 75.1118 15.4302V16.5435V17.3198C75.1118 18.5747 75.1777 19.3657 75.3096 19.6929C75.4414 20.02 75.6855 20.1836 76.042 20.1836C76.3984 20.1836 76.6572 20.0396 76.8184 19.7515C76.9795 19.4634 77.0601 18.9971 77.0601 18.3525C77.0601 18.2061 77.0576 18.0938 77.0527 18.0156C77.0527 17.9375 77.0503 17.8618 77.0454 17.7886H76.0127V15.8184H79.5942ZM85.7134 22V12.9106H83.604V10.7207H90.5767V12.9106H88.3574V22H85.7134ZM91.1606 22V10.7207H93.7974V14.9834H95.9141V10.7207H98.4922V22H95.9141V17.3198H93.7974V22H91.1606ZM99.8306 22V10.7207H105.968V12.9106H102.453V14.9834H105.697V17.2466H102.453V19.7075H105.968V22H99.8306ZM112.358 22L109.839 10.7207H112.629L113.604 16.646C113.647 16.9097 113.696 17.2588 113.75 17.6934C113.809 18.123 113.865 18.5894 113.918 19.0923L113.94 18.9531C114.072 17.7764 114.165 17.0122 114.219 16.6606L115.215 10.7207H117.998L115.435 22H112.358ZM118.545 22V10.7207H121.182V22H118.545ZM122.513 22V10.7207H125.26L127.45 17.6787C127.362 16.5068 127.296 15.4961 127.252 14.6465C127.213 13.7969 127.193 13.0791 127.193 12.4932V10.7207H129.544V22H126.791L124.586 14.8296C124.684 15.7622 124.757 16.668 124.806 17.5469C124.859 18.4209 124.886 19.2705 124.886 20.0957V22H122.513ZM130.89 22V10.7207H133.527V14.9834H135.644V10.7207H138.222V22H135.644V17.3198H133.527V22H130.89Z" fill="#0D47A1"/>
</svg>